<svg width="111" height="114" viewBox="0 0 111 114" fill="none" xmlns="http://www.w3.org/2000/svg">
<g clip-path="url(#clip0_133_581)">
<path d="M70.964 61.406C70.5714 61.406 70.1846 61.4404 69.8092 61.5017V58.9911H37.4622V73.3463C37.4622 81.0946 43.7435 87.374 51.4899 87.374H55.7796C62.8442 87.374 68.687 82.1498 69.6618 75.3552C70.0831 75.4337 70.5178 75.4777 70.9621 75.4777C74.842 75.4777 77.998 72.3217 77.998 68.4419C77.998 64.562 74.842 61.406 70.9621 61.406H70.964ZM70.964 71.8487C70.558 71.8487 70.1693 71.774 69.8092 71.6419V65.2418C70.1712 65.1116 70.558 65.035 70.964 65.035C72.8427 65.035 74.3709 66.5632 74.3709 68.4419C74.3709 70.3205 72.8427 71.8468 70.964 71.8468V71.8487Z" fill="#F26524"/>
<path d="M40.7332 62.6163V68.4457" stroke="white" stroke-width="1.53395" stroke-miterlimit="10" stroke-linecap="round"/>
<path d="M40.7332 70.943V73.1893" stroke="white" stroke-width="1.53395" stroke-miterlimit="10" stroke-linecap="round"/>
<path d="M2.38024 2.11804H30.9221H89.7696V7.93787C89.7696 18.7043 81.0428 27.4311 70.2764 27.4311H28.6241V92.0697H72.5916C82.0788 92.0697 89.7696 99.7606 89.7696 109.248V111.728H30.9202H2.37833H2.11597V2.11804H2.37833H2.38024Z" stroke="#27004B" stroke-width="4.23609" stroke-miterlimit="10" stroke-linecap="round"/>
<path d="M46.4056 43.9274H62.1281C64.1673 43.9274 65.8203 42.2743 65.8203 40.2352V31.1234C65.8203 29.0842 64.1673 27.4311 62.1281 27.4311L46.4056 27.4311C44.3664 27.4311 42.7133 29.0842 42.7133 31.1234V40.2352C42.7133 42.2743 44.3664 43.9274 46.4056 43.9274Z" stroke="#27004B" stroke-width="4.23609" stroke-miterlimit="10" stroke-linecap="round"/>
<path d="M65.8203 36.2825L78.4577 38.0864" stroke="#27004B" stroke-width="3.97755" stroke-miterlimit="10" stroke-linecap="round"/>
<path d="M78.9612 35.528V40.9207L109.391 44.7776V35.528H78.9612Z" stroke="#27004B" stroke-width="3.21728" stroke-linecap="round" stroke-linejoin="round"/>
<path d="M53.7786 43.9274V52.4129" stroke="#27004B" stroke-width="3.97755" stroke-miterlimit="10" stroke-linecap="round"/>
</g>
<defs>
<clipPath id="clip0_133_581">
<rect width="111" height="113.848" fill="white"/>
</clipPath>
</defs>
</svg>
