<svg width="89" height="92" viewBox="0 0 89 92" fill="none" xmlns="http://www.w3.org/2000/svg">
<g clip-path="url(#clip0_133_639)">
<path d="M15.7717 10.229L10.1738 15.7996C9.67411 16.2969 9.67214 17.105 10.1694 17.6047L15.74 23.2026C16.2373 23.7023 17.0454 23.7043 17.5451 23.207L23.143 17.6364C23.6427 17.1392 23.6447 16.331 23.1475 15.8313L17.5768 10.2334C17.0796 9.7337 16.2714 9.73173 15.7717 10.229Z" fill="#F26524"/>
<path d="M25.4069 0.415968L19.7564 6.03889C19.2712 6.52169 19.2693 7.3064 19.7521 7.79157L35.0293 23.1435C35.5121 23.6287 36.2968 23.6306 36.7819 23.1478L42.4324 17.5249C42.9176 17.0421 42.9195 16.2574 42.4367 15.7722L27.1596 0.420251C26.6768 -0.0649216 25.8921 -0.0668404 25.4069 0.415968Z" fill="#F26524"/>
<path d="M44.6476 0.364576L38.9971 5.98749C38.512 6.4703 38.51 7.255 38.9929 7.74018L54.3175 23.1399C54.8003 23.6251 55.585 23.627 56.0702 23.1442L61.7206 17.5213C62.2058 17.0385 62.2077 16.2538 61.7249 15.7686L46.4003 0.36886C45.9175 -0.116313 45.1328 -0.118232 44.6476 0.364576Z" fill="#F26524"/>
<path d="M73.552 34.7182C72.6865 34.7182 71.8412 34.7923 71.0161 34.9304V29.4174H0V60.9363C0 77.9469 13.7876 91.7345 30.7982 91.7345H40.2179C55.7298 91.7345 68.5576 80.2639 70.6962 65.3447C71.6223 65.5198 72.5754 65.6141 73.552 65.6141C82.0691 65.6141 89 58.6833 89 50.1662C89 41.6491 82.0691 34.7182 73.552 34.7182ZM73.552 57.6426C72.6596 57.6426 71.8109 57.4776 71.0161 57.1913V43.141C71.8109 42.8548 72.6596 42.6897 73.552 42.6897C77.6742 42.6897 81.0285 46.044 81.0285 50.1662C81.0285 54.2883 77.6742 57.6426 73.552 57.6426Z" fill="#27004B"/>
<path d="M7.17969 37.3755V50.173" stroke="white" stroke-width="3.36777" stroke-miterlimit="10" stroke-linecap="round"/>
<path d="M7.17969 55.6522V60.5894" stroke="white" stroke-width="3.36777" stroke-miterlimit="10" stroke-linecap="round"/>
</g>
<defs>
<clipPath id="clip0_133_639">
<rect width="89" height="91.7346" fill="white"/>
</clipPath>
</defs>
</svg>
