<svg width="95" height="93" viewBox="0 0 95 93" fill="none" xmlns="http://www.w3.org/2000/svg">
<g clip-path="url(#clip0_130_555)">
<path d="M77.8349 32.6629C76.9217 32.6629 76.0263 32.7432 75.1517 32.886V27.0525H0.000244141V60.4055C0.000244141 78.4058 14.5915 92.997 32.5917 92.997H42.5572C58.9719 92.997 72.5458 80.86 74.8126 65.0729C75.7912 65.2574 76.8027 65.3585 77.8349 65.3585C86.8484 65.3585 94.1812 58.0257 94.1812 49.0122C94.1812 39.9987 86.8484 32.6659 77.8349 32.6659V32.6629ZM77.8349 56.9221C76.8919 56.9221 75.9906 56.7466 75.1517 56.4431V41.5753C75.9906 41.2719 76.8919 41.0963 77.8349 41.0963C82.1989 41.0963 85.7478 44.6452 85.7478 49.0092C85.7478 53.3732 82.1989 56.9221 77.8349 56.9221Z" fill="#DDDDDD"/>
<path d="M7.60059 35.4771V49.0211" stroke="white" stroke-width="3.56377" stroke-miterlimit="10" stroke-linecap="round"/>
<path d="M7.60059 54.819V60.0427" stroke="white" stroke-width="3.56377" stroke-miterlimit="10" stroke-linecap="round"/>
<path d="M18.1955 9.03391L13.2508 13.9545C12.8095 14.3937 12.8077 15.1076 13.2469 15.5489L18.1675 20.4936C18.6067 20.935 19.3206 20.9367 19.7619 20.4975L24.7066 15.5769C25.148 15.1377 25.1497 14.4239 24.7105 13.9825L19.7899 9.03781C19.3507 8.59644 18.6369 8.5947 18.1955 9.03391Z" fill="#DDDDDD"/>
<path d="M26.7045 0.371057L21.7135 5.3378C21.2849 5.76427 21.2832 6.4574 21.7097 6.88595L35.204 20.4464C35.6305 20.875 36.3236 20.8767 36.7522 20.4502L41.7433 15.4835C42.1718 15.057 42.1735 14.3639 41.747 13.9353L28.2527 0.37484C27.8262 -0.0537152 27.1331 -0.0554085 26.7045 0.371057Z" fill="#DDDDDD"/>
<path d="M43.6997 0.322838L38.7086 5.28958C38.28 5.71605 38.2783 6.40918 38.7048 6.83774L52.2411 20.4404C52.6676 20.8689 53.3607 20.8706 53.7893 20.4441L58.7804 15.4774C59.2089 15.0509 59.2106 14.3578 58.7841 13.9293L45.2478 0.326622C44.8213 -0.101933 44.1282 -0.103628 43.6997 0.322838Z" fill="#DDDDDD"/>
</g>
<defs>
<clipPath id="clip0_130_555">
<rect width="94.181" height="93" fill="white"/>
</clipPath>
</defs>
</svg>
